<mxfile host="app.diagrams.net" modified="2023-04-23T16:34:40.663Z" agent="Mozilla/5.0 (Macintosh; Intel Mac OS X 10_15_7) AppleWebKit/537.36 (KHTML, like Gecko) Chrome/112.0.0.0 Safari/537.36" etag="SHl1oH0Tqo3Kwm8IfbYt" version="21.1.2" type="device">
  <diagram name="Page-1" id="ERz1TwGrXm5DOkrKuKh9">
    <mxGraphModel dx="1861" dy="516" grid="1" gridSize="10" guides="1" tooltips="1" connect="1" arrows="1" fold="1" page="1" pageScale="1" pageWidth="827" pageHeight="1169" math="0" shadow="0">
      <root>
        <mxCell id="0" />
        <mxCell id="1" parent="0" />
        <mxCell id="FvL0lC-zSxbZgia9cZai-40" value="" style="group" parent="1" vertex="1" connectable="0">
          <mxGeometry x="70" y="1040" width="590" height="70" as="geometry" />
        </mxCell>
        <mxCell id="FvL0lC-zSxbZgia9cZai-1" value="" style="rounded=0;whiteSpace=wrap;html=1;" parent="FvL0lC-zSxbZgia9cZai-40" vertex="1">
          <mxGeometry x="50" width="520" height="70" as="geometry" />
        </mxCell>
        <mxCell id="FvL0lC-zSxbZgia9cZai-17" value="" style="group" parent="FvL0lC-zSxbZgia9cZai-40" vertex="1" connectable="0">
          <mxGeometry width="110" height="70" as="geometry" />
        </mxCell>
        <mxCell id="FvL0lC-zSxbZgia9cZai-4" value="" style="rounded=0;whiteSpace=wrap;html=1;direction=west;" parent="FvL0lC-zSxbZgia9cZai-17" vertex="1">
          <mxGeometry width="110" height="70" as="geometry" />
        </mxCell>
        <mxCell id="FvL0lC-zSxbZgia9cZai-6" value="steps&lt;br&gt;Recording&lt;br&gt;(&amp;nbsp;accelerometer)" style="text;html=1;strokeColor=none;fillColor=none;align=center;verticalAlign=middle;whiteSpace=wrap;rounded=0;direction=west;" parent="FvL0lC-zSxbZgia9cZai-17" vertex="1">
          <mxGeometry x="16.25" y="25" width="77.5" height="20" as="geometry" />
        </mxCell>
        <mxCell id="FvL0lC-zSxbZgia9cZai-18" value="" style="group" parent="FvL0lC-zSxbZgia9cZai-40" vertex="1" connectable="0">
          <mxGeometry x="120" width="110" height="70" as="geometry" />
        </mxCell>
        <mxCell id="FvL0lC-zSxbZgia9cZai-19" value="" style="rounded=0;whiteSpace=wrap;html=1;direction=west;" parent="FvL0lC-zSxbZgia9cZai-18" vertex="1">
          <mxGeometry width="110" height="70" as="geometry" />
        </mxCell>
        <mxCell id="FvL0lC-zSxbZgia9cZai-20" value="location&lt;br&gt;Recording&lt;br&gt;(&amp;nbsp;accelerometer)" style="text;html=1;strokeColor=none;fillColor=none;align=center;verticalAlign=middle;whiteSpace=wrap;rounded=0;direction=west;" parent="FvL0lC-zSxbZgia9cZai-18" vertex="1">
          <mxGeometry x="16.25" y="25" width="77.5" height="20" as="geometry" />
        </mxCell>
        <mxCell id="FvL0lC-zSxbZgia9cZai-24" value="" style="group" parent="FvL0lC-zSxbZgia9cZai-40" vertex="1" connectable="0">
          <mxGeometry x="240" width="110" height="70" as="geometry" />
        </mxCell>
        <mxCell id="FvL0lC-zSxbZgia9cZai-25" value="" style="rounded=0;whiteSpace=wrap;html=1;direction=west;" parent="FvL0lC-zSxbZgia9cZai-24" vertex="1">
          <mxGeometry width="110" height="70" as="geometry" />
        </mxCell>
        <mxCell id="FvL0lC-zSxbZgia9cZai-26" value="weather&lt;br&gt;Recording&lt;br&gt;( weather-api)" style="text;html=1;strokeColor=none;fillColor=none;align=center;verticalAlign=middle;whiteSpace=wrap;rounded=0;direction=west;" parent="FvL0lC-zSxbZgia9cZai-24" vertex="1">
          <mxGeometry x="16.25" y="25" width="77.5" height="20" as="geometry" />
        </mxCell>
        <mxCell id="FvL0lC-zSxbZgia9cZai-28" value="" style="group" parent="FvL0lC-zSxbZgia9cZai-40" vertex="1" connectable="0">
          <mxGeometry x="360" width="110" height="70" as="geometry" />
        </mxCell>
        <mxCell id="FvL0lC-zSxbZgia9cZai-29" value="" style="rounded=0;whiteSpace=wrap;html=1;direction=west;" parent="FvL0lC-zSxbZgia9cZai-28" vertex="1">
          <mxGeometry width="110" height="70" as="geometry" />
        </mxCell>
        <mxCell id="FvL0lC-zSxbZgia9cZai-30" value="&lt;br style=&quot;border-color: var(--border-color);&quot;&gt;Recording N&lt;br style=&quot;border-color: var(--border-color);&quot;&gt;(sensor N - 1)" style="text;html=1;strokeColor=none;fillColor=none;align=center;verticalAlign=middle;whiteSpace=wrap;rounded=0;direction=west;" parent="FvL0lC-zSxbZgia9cZai-28" vertex="1">
          <mxGeometry x="16.25" y="25" width="77.5" height="20" as="geometry" />
        </mxCell>
        <mxCell id="FvL0lC-zSxbZgia9cZai-37" value="" style="group" parent="FvL0lC-zSxbZgia9cZai-40" vertex="1" connectable="0">
          <mxGeometry x="480" width="110" height="70" as="geometry" />
        </mxCell>
        <mxCell id="FvL0lC-zSxbZgia9cZai-38" value="" style="rounded=0;whiteSpace=wrap;html=1;direction=west;" parent="FvL0lC-zSxbZgia9cZai-37" vertex="1">
          <mxGeometry width="110" height="70" as="geometry" />
        </mxCell>
        <mxCell id="FvL0lC-zSxbZgia9cZai-39" value="&lt;br&gt;Recording&lt;br&gt;( sensor N)" style="text;html=1;strokeColor=none;fillColor=none;align=center;verticalAlign=middle;whiteSpace=wrap;rounded=0;direction=west;" parent="FvL0lC-zSxbZgia9cZai-37" vertex="1">
          <mxGeometry x="16.25" y="25" width="77.5" height="20" as="geometry" />
        </mxCell>
        <mxCell id="FvL0lC-zSxbZgia9cZai-42" value="" style="rounded=0;whiteSpace=wrap;html=1;" parent="1" vertex="1">
          <mxGeometry x="200" y="850" width="260" height="60" as="geometry" />
        </mxCell>
        <mxCell id="FvL0lC-zSxbZgia9cZai-46" style="edgeStyle=orthogonalEdgeStyle;rounded=0;orthogonalLoop=1;jettySize=auto;html=1;entryX=0.318;entryY=0.986;entryDx=0;entryDy=0;entryPerimeter=0;" parent="1" source="FvL0lC-zSxbZgia9cZai-43" target="FvL0lC-zSxbZgia9cZai-19" edge="1">
          <mxGeometry relative="1" as="geometry" />
        </mxCell>
        <mxCell id="FvL0lC-zSxbZgia9cZai-49" value="&lt;b&gt;Activate/Not Activate&lt;/b&gt;" style="edgeLabel;html=1;align=center;verticalAlign=middle;resizable=0;points=[];" parent="FvL0lC-zSxbZgia9cZai-46" vertex="1" connectable="0">
          <mxGeometry x="-0.0752" y="-2" relative="1" as="geometry">
            <mxPoint as="offset" />
          </mxGeometry>
        </mxCell>
        <mxCell id="FvL0lC-zSxbZgia9cZai-43" value="Sensor Controller" style="rounded=0;whiteSpace=wrap;html=1;" parent="1" vertex="1">
          <mxGeometry x="220" y="865" width="90" height="30" as="geometry" />
        </mxCell>
        <mxCell id="FvL0lC-zSxbZgia9cZai-44" value="Sensor Updates&lt;br&gt;Handler" style="rounded=0;whiteSpace=wrap;html=1;" parent="1" vertex="1">
          <mxGeometry x="340" y="865" width="90" height="30" as="geometry" />
        </mxCell>
        <mxCell id="FvL0lC-zSxbZgia9cZai-45" value="&lt;b&gt;Data Updates&lt;/b&gt;" style="edgeStyle=orthogonalEdgeStyle;rounded=0;orthogonalLoop=1;jettySize=auto;html=1;exitX=0.318;exitY=1;exitDx=0;exitDy=0;exitPerimeter=0;" parent="1" source="FvL0lC-zSxbZgia9cZai-25" target="FvL0lC-zSxbZgia9cZai-44" edge="1">
          <mxGeometry relative="1" as="geometry" />
        </mxCell>
        <mxCell id="FvL0lC-zSxbZgia9cZai-56" value="&lt;b&gt;&lt;font style=&quot;font-size: 14px;&quot;&gt;SENSOR MANAGER&lt;/font&gt;&lt;/b&gt;" style="text;html=1;strokeColor=none;fillColor=none;align=center;verticalAlign=middle;whiteSpace=wrap;rounded=0;" parent="1" vertex="1">
          <mxGeometry x="250" y="830" width="140" height="30" as="geometry" />
        </mxCell>
        <mxCell id="FvL0lC-zSxbZgia9cZai-57" value="&lt;b&gt;&lt;font style=&quot;font-size: 14px;&quot;&gt;DATA PRODUCERS&lt;/font&gt;&lt;/b&gt;" style="text;html=1;strokeColor=none;fillColor=none;align=center;verticalAlign=middle;whiteSpace=wrap;rounded=0;" parent="1" vertex="1">
          <mxGeometry x="260" y="1020" width="140" height="30" as="geometry" />
        </mxCell>
        <mxCell id="FvL0lC-zSxbZgia9cZai-64" style="edgeStyle=orthogonalEdgeStyle;rounded=0;orthogonalLoop=1;jettySize=auto;html=1;exitX=0.667;exitY=0.033;exitDx=0;exitDy=0;exitPerimeter=0;" parent="1" source="FvL0lC-zSxbZgia9cZai-44" target="FvL0lC-zSxbZgia9cZai-58" edge="1">
          <mxGeometry relative="1" as="geometry" />
        </mxCell>
        <mxCell id="FvL0lC-zSxbZgia9cZai-66" value="&lt;b&gt;DATA DISPATCH&lt;/b&gt;" style="rounded=0;orthogonalLoop=1;jettySize=auto;html=1;entryX=0;entryY=0.5;entryDx=0;entryDy=0;" parent="1" source="FvL0lC-zSxbZgia9cZai-58" target="FvL0lC-zSxbZgia9cZai-65" edge="1">
          <mxGeometry relative="1" as="geometry" />
        </mxCell>
        <mxCell id="FvL0lC-zSxbZgia9cZai-67" style="rounded=0;orthogonalLoop=1;jettySize=auto;html=1;exitX=0.329;exitY=-0.009;exitDx=0;exitDy=0;entryX=0.5;entryY=0;entryDx=0;entryDy=0;exitPerimeter=0;" parent="1" source="FvL0lC-zSxbZgia9cZai-65" target="FvL0lC-zSxbZgia9cZai-58" edge="1">
          <mxGeometry relative="1" as="geometry">
            <Array as="points">
              <mxPoint x="570" y="440" />
            </Array>
          </mxGeometry>
        </mxCell>
        <mxCell id="FvL0lC-zSxbZgia9cZai-68" value="&lt;b&gt;DATA PRODUCERS&lt;br&gt;NEEDED&lt;/b&gt;" style="edgeLabel;html=1;align=center;verticalAlign=middle;resizable=0;points=[];" parent="FvL0lC-zSxbZgia9cZai-67" vertex="1" connectable="0">
          <mxGeometry x="-0.1779" y="-1" relative="1" as="geometry">
            <mxPoint as="offset" />
          </mxGeometry>
        </mxCell>
        <mxCell id="FvL0lC-zSxbZgia9cZai-101" style="edgeStyle=orthogonalEdgeStyle;rounded=0;orthogonalLoop=1;jettySize=auto;html=1;exitX=0.25;exitY=0;exitDx=0;exitDy=0;entryX=1;entryY=0.5;entryDx=0;entryDy=0;" parent="1" source="FvL0lC-zSxbZgia9cZai-58" target="FvL0lC-zSxbZgia9cZai-93" edge="1">
          <mxGeometry relative="1" as="geometry" />
        </mxCell>
        <mxCell id="FvL0lC-zSxbZgia9cZai-102" value="&lt;b&gt;Notification&amp;nbsp;&lt;br&gt;Messages&lt;/b&gt;" style="edgeLabel;html=1;align=center;verticalAlign=middle;resizable=0;points=[];" parent="FvL0lC-zSxbZgia9cZai-101" vertex="1" connectable="0">
          <mxGeometry x="-0.0547" y="2" relative="1" as="geometry">
            <mxPoint as="offset" />
          </mxGeometry>
        </mxCell>
        <mxCell id="FvL0lC-zSxbZgia9cZai-58" value="Trigger Controller" style="rounded=0;whiteSpace=wrap;html=1;" parent="1" vertex="1">
          <mxGeometry x="340" y="620" width="120" height="60" as="geometry" />
        </mxCell>
        <mxCell id="FvL0lC-zSxbZgia9cZai-63" value="" style="rounded=0;whiteSpace=wrap;html=1;" parent="1" vertex="1">
          <mxGeometry x="700" y="760" width="150" height="40" as="geometry" />
        </mxCell>
        <mxCell id="FvL0lC-zSxbZgia9cZai-65" value="" style="rounded=0;whiteSpace=wrap;html=1;" parent="1" vertex="1">
          <mxGeometry x="660" y="470" width="280" height="370" as="geometry" />
        </mxCell>
        <mxCell id="FvL0lC-zSxbZgia9cZai-71" value="&lt;b&gt;&lt;font style=&quot;font-size: 14px;&quot;&gt;TRIGGERS&lt;/font&gt;&lt;/b&gt;" style="text;html=1;strokeColor=none;fillColor=none;align=center;verticalAlign=middle;whiteSpace=wrap;rounded=0;" parent="1" vertex="1">
          <mxGeometry x="780" y="440" width="60" height="30" as="geometry" />
        </mxCell>
        <mxCell id="FvL0lC-zSxbZgia9cZai-81" value="" style="group" parent="1" vertex="1" connectable="0">
          <mxGeometry x="680" y="480" width="220" height="120" as="geometry" />
        </mxCell>
        <mxCell id="FvL0lC-zSxbZgia9cZai-80" value="" style="rounded=0;whiteSpace=wrap;html=1;" parent="FvL0lC-zSxbZgia9cZai-81" vertex="1">
          <mxGeometry x="10" width="210" height="120" as="geometry" />
        </mxCell>
        <mxCell id="FvL0lC-zSxbZgia9cZai-74" value="Trigger 1" style="text;html=1;strokeColor=none;fillColor=none;align=center;verticalAlign=middle;whiteSpace=wrap;rounded=0;" parent="FvL0lC-zSxbZgia9cZai-81" vertex="1">
          <mxGeometry x="30" y="10" width="60" height="10" as="geometry" />
        </mxCell>
        <mxCell id="FvL0lC-zSxbZgia9cZai-76" value="&lt;ul&gt;&lt;li style=&quot;text-align: left;&quot;&gt;handle()&lt;/li&gt;&lt;li&gt;shouldRunNotication():Boolean&lt;/li&gt;&lt;li style=&quot;text-align: left;&quot;&gt;getNotifcationMessage():String&lt;/li&gt;&lt;li style=&quot;text-align: left;&quot;&gt;getNotificationTitle():String&lt;/li&gt;&lt;/ul&gt;" style="text;html=1;strokeColor=none;fillColor=none;align=center;verticalAlign=middle;whiteSpace=wrap;rounded=0;" parent="FvL0lC-zSxbZgia9cZai-81" vertex="1">
          <mxGeometry y="45" width="190" height="20" as="geometry" />
        </mxCell>
        <mxCell id="FvL0lC-zSxbZgia9cZai-88" value="" style="group" parent="1" vertex="1" connectable="0">
          <mxGeometry x="680" y="610" width="220" height="120" as="geometry" />
        </mxCell>
        <mxCell id="FvL0lC-zSxbZgia9cZai-89" value="" style="rounded=0;whiteSpace=wrap;html=1;" parent="FvL0lC-zSxbZgia9cZai-88" vertex="1">
          <mxGeometry x="10" width="210" height="120" as="geometry" />
        </mxCell>
        <mxCell id="FvL0lC-zSxbZgia9cZai-90" value="Trigger 2" style="text;html=1;strokeColor=none;fillColor=none;align=center;verticalAlign=middle;whiteSpace=wrap;rounded=0;" parent="FvL0lC-zSxbZgia9cZai-88" vertex="1">
          <mxGeometry x="30" y="10" width="60" height="10" as="geometry" />
        </mxCell>
        <mxCell id="FvL0lC-zSxbZgia9cZai-91" value="&lt;ul&gt;&lt;li style=&quot;text-align: left;&quot;&gt;handle()&lt;/li&gt;&lt;li&gt;shouldRunNotication():Boolean&lt;/li&gt;&lt;li style=&quot;text-align: left;&quot;&gt;getNotifcationMessage():String&lt;/li&gt;&lt;li style=&quot;text-align: left;&quot;&gt;getNotificationTitle():String&lt;/li&gt;&lt;/ul&gt;" style="text;html=1;strokeColor=none;fillColor=none;align=center;verticalAlign=middle;whiteSpace=wrap;rounded=0;" parent="FvL0lC-zSxbZgia9cZai-88" vertex="1">
          <mxGeometry y="45" width="190" height="20" as="geometry" />
        </mxCell>
        <mxCell id="FvL0lC-zSxbZgia9cZai-92" value="&lt;h1&gt;Trigger Controller&lt;/h1&gt;&lt;div&gt;It decides when if to accept trigger notification based on individual Rules&lt;/div&gt;" style="text;html=1;strokeColor=none;fillColor=none;spacing=5;spacingTop=-20;whiteSpace=wrap;overflow=hidden;rounded=0;" parent="1" vertex="1">
          <mxGeometry x="430" y="700" width="190" height="120" as="geometry" />
        </mxCell>
        <mxCell id="FvL0lC-zSxbZgia9cZai-62" value="TRIGGER N" style="rounded=0;whiteSpace=wrap;html=1;" parent="1" vertex="1">
          <mxGeometry x="715" y="800" width="150" height="30" as="geometry" />
        </mxCell>
        <mxCell id="FvL0lC-zSxbZgia9cZai-120" style="edgeStyle=orthogonalEdgeStyle;rounded=0;orthogonalLoop=1;jettySize=auto;html=1;exitX=0;exitY=0.5;exitDx=0;exitDy=0;entryX=1;entryY=0.5;entryDx=0;entryDy=0;" parent="1" source="FvL0lC-zSxbZgia9cZai-93" target="FvL0lC-zSxbZgia9cZai-114" edge="1">
          <mxGeometry relative="1" as="geometry" />
        </mxCell>
        <mxCell id="FvL0lC-zSxbZgia9cZai-93" value="Notification Manager" style="rounded=0;whiteSpace=wrap;html=1;" parent="1" vertex="1">
          <mxGeometry x="205" y="460" width="120" height="60" as="geometry" />
        </mxCell>
        <mxCell id="FvL0lC-zSxbZgia9cZai-111" style="edgeStyle=orthogonalEdgeStyle;rounded=0;orthogonalLoop=1;jettySize=auto;html=1;exitX=1;exitY=0.25;exitDx=0;exitDy=0;entryX=0.139;entryY=0.99;entryDx=0;entryDy=0;entryPerimeter=0;" parent="1" source="FvL0lC-zSxbZgia9cZai-95" target="FvL0lC-zSxbZgia9cZai-93" edge="1">
          <mxGeometry relative="1" as="geometry">
            <mxPoint x="220" y="530" as="targetPoint" />
          </mxGeometry>
        </mxCell>
        <mxCell id="FvL0lC-zSxbZgia9cZai-113" value="&lt;b&gt;ShowNotification&lt;/b&gt;" style="edgeLabel;html=1;align=center;verticalAlign=middle;resizable=0;points=[];" parent="FvL0lC-zSxbZgia9cZai-111" vertex="1" connectable="0">
          <mxGeometry x="0.604" y="-1" relative="1" as="geometry">
            <mxPoint as="offset" />
          </mxGeometry>
        </mxCell>
        <mxCell id="FvL0lC-zSxbZgia9cZai-95" value="" style="shape=hexagon;perimeter=hexagonPerimeter2;whiteSpace=wrap;html=1;fixedSize=1;" parent="1" vertex="1">
          <mxGeometry x="-150" y="800" width="250" height="80" as="geometry" />
        </mxCell>
        <mxCell id="FvL0lC-zSxbZgia9cZai-96" value="&lt;b&gt;DATA STORE&lt;/b&gt;" style="text;html=1;strokeColor=none;fillColor=none;align=center;verticalAlign=middle;whiteSpace=wrap;rounded=0;" parent="1" vertex="1">
          <mxGeometry x="-75" y="770" width="100" height="30" as="geometry" />
        </mxCell>
        <mxCell id="FvL0lC-zSxbZgia9cZai-98" style="edgeStyle=orthogonalEdgeStyle;rounded=0;orthogonalLoop=1;jettySize=auto;html=1;entryX=0;entryY=0.75;entryDx=0;entryDy=0;exitX=1;exitY=0.5;exitDx=0;exitDy=0;" parent="1" source="FvL0lC-zSxbZgia9cZai-95" target="FvL0lC-zSxbZgia9cZai-43" edge="1">
          <mxGeometry relative="1" as="geometry">
            <mxPoint x="90" y="850" as="sourcePoint" />
          </mxGeometry>
        </mxCell>
        <mxCell id="FvL0lC-zSxbZgia9cZai-97" value="&lt;ul&gt;&lt;li style=&quot;text-align: left;&quot;&gt;showNotication(true/false)&lt;/li&gt;&lt;li style=&quot;text-align: left;&quot;&gt;automaticStepCounting(true/false)&lt;/li&gt;&lt;li style=&quot;text-align: left;&quot;&gt;sensorIsActive(true/false)&lt;/li&gt;&lt;/ul&gt;" style="text;html=1;strokeColor=none;fillColor=none;align=center;verticalAlign=middle;whiteSpace=wrap;rounded=0;" parent="1" vertex="1">
          <mxGeometry x="-190" y="825" width="280" height="30" as="geometry" />
        </mxCell>
        <mxCell id="FvL0lC-zSxbZgia9cZai-110" value="&lt;b&gt;&lt;font style=&quot;&quot;&gt;&lt;font style=&quot;font-size: 18px;&quot;&gt;,&lt;br&gt;.&lt;br&gt;,&lt;br&gt;.&lt;/font&gt;&lt;br&gt;&lt;/font&gt;&lt;/b&gt;" style="text;html=1;strokeColor=none;fillColor=none;align=center;verticalAlign=middle;whiteSpace=wrap;rounded=0;" parent="1" vertex="1">
          <mxGeometry x="760" y="745" width="60" height="30" as="geometry" />
        </mxCell>
        <mxCell id="FvL0lC-zSxbZgia9cZai-119" value="&lt;b&gt;Yes&lt;/b&gt;" style="edgeStyle=orthogonalEdgeStyle;rounded=0;orthogonalLoop=1;jettySize=auto;html=1;entryX=1.007;entryY=0.94;entryDx=0;entryDy=0;entryPerimeter=0;" parent="1" source="FvL0lC-zSxbZgia9cZai-114" target="FvL0lC-zSxbZgia9cZai-103" edge="1">
          <mxGeometry relative="1" as="geometry" />
        </mxCell>
        <mxCell id="FvL0lC-zSxbZgia9cZai-114" value="isPermission&lt;br&gt;Granted" style="rhombus;whiteSpace=wrap;html=1;" parent="1" vertex="1">
          <mxGeometry x="-20" y="430" width="150" height="140" as="geometry" />
        </mxCell>
        <mxCell id="FvL0lC-zSxbZgia9cZai-121" value="" style="group" parent="1" vertex="1" connectable="0">
          <mxGeometry x="-360" y="190" width="240" height="320" as="geometry" />
        </mxCell>
        <mxCell id="FvL0lC-zSxbZgia9cZai-103" value="" style="rounded=0;whiteSpace=wrap;html=1;" parent="FvL0lC-zSxbZgia9cZai-121" vertex="1">
          <mxGeometry width="240" height="320" as="geometry" />
        </mxCell>
        <mxCell id="FvL0lC-zSxbZgia9cZai-104" value="The Way is Good why don&#39;t you go outside" style="rounded=0;whiteSpace=wrap;html=1;" parent="FvL0lC-zSxbZgia9cZai-121" vertex="1">
          <mxGeometry x="10" y="90" width="220" height="60" as="geometry" />
        </mxCell>
        <mxCell id="FvL0lC-zSxbZgia9cZai-105" value="You Are Half Way There" style="rounded=0;whiteSpace=wrap;html=1;" parent="FvL0lC-zSxbZgia9cZai-121" vertex="1">
          <mxGeometry x="10" y="20" width="220" height="60" as="geometry" />
        </mxCell>
        <mxCell id="FvL0lC-zSxbZgia9cZai-106" value="You have Completed your goals" style="rounded=0;whiteSpace=wrap;html=1;" parent="FvL0lC-zSxbZgia9cZai-121" vertex="1">
          <mxGeometry x="10" y="160" width="220" height="60" as="geometry" />
        </mxCell>
        <mxCell id="FvL0lC-zSxbZgia9cZai-107" value="Notification N" style="rounded=0;whiteSpace=wrap;html=1;" parent="FvL0lC-zSxbZgia9cZai-121" vertex="1">
          <mxGeometry x="15" y="270" width="210" height="40" as="geometry" />
        </mxCell>
        <mxCell id="FvL0lC-zSxbZgia9cZai-109" value="&lt;b&gt;&lt;font style=&quot;&quot;&gt;&lt;font style=&quot;font-size: 18px;&quot;&gt;,&lt;br&gt;.&lt;br&gt;,&lt;br&gt;.&lt;/font&gt;&lt;br&gt;&lt;/font&gt;&lt;/b&gt;" style="text;html=1;strokeColor=none;fillColor=none;align=center;verticalAlign=middle;whiteSpace=wrap;rounded=0;" parent="FvL0lC-zSxbZgia9cZai-121" vertex="1">
          <mxGeometry x="90" y="230" width="60" height="30" as="geometry" />
        </mxCell>
        <mxCell id="FvL0lC-zSxbZgia9cZai-124" style="edgeStyle=orthogonalEdgeStyle;rounded=0;orthogonalLoop=1;jettySize=auto;html=1;exitX=0.5;exitY=1;exitDx=0;exitDy=0;entryX=0.5;entryY=0;entryDx=0;entryDy=0;" parent="1" source="FvL0lC-zSxbZgia9cZai-122" target="FvL0lC-zSxbZgia9cZai-123" edge="1">
          <mxGeometry relative="1" as="geometry" />
        </mxCell>
        <mxCell id="FvL0lC-zSxbZgia9cZai-128" style="edgeStyle=orthogonalEdgeStyle;rounded=0;orthogonalLoop=1;jettySize=auto;html=1;exitX=0;exitY=0.5;exitDx=0;exitDy=0;" parent="1" source="FvL0lC-zSxbZgia9cZai-122" target="FvL0lC-zSxbZgia9cZai-95" edge="1">
          <mxGeometry relative="1" as="geometry">
            <Array as="points">
              <mxPoint x="-40" y="135" />
            </Array>
          </mxGeometry>
        </mxCell>
        <mxCell id="FvL0lC-zSxbZgia9cZai-129" value="&lt;b&gt;&lt;font style=&quot;font-size: 14px;&quot;&gt;toggle Preference&lt;/font&gt;&lt;/b&gt;" style="edgeLabel;html=1;align=center;verticalAlign=middle;resizable=0;points=[];" parent="FvL0lC-zSxbZgia9cZai-128" vertex="1" connectable="0">
          <mxGeometry x="-0.1759" y="-5" relative="1" as="geometry">
            <mxPoint y="1" as="offset" />
          </mxGeometry>
        </mxCell>
        <mxCell id="FvL0lC-zSxbZgia9cZai-122" value="Main Activty&lt;br&gt;onCreate()" style="rounded=0;whiteSpace=wrap;html=1;" parent="1" vertex="1">
          <mxGeometry x="90" y="110" width="260" height="50" as="geometry" />
        </mxCell>
        <mxCell id="FvL0lC-zSxbZgia9cZai-125" style="edgeStyle=orthogonalEdgeStyle;rounded=0;orthogonalLoop=1;jettySize=auto;html=1;entryX=1;entryY=0.75;entryDx=0;entryDy=0;" parent="1" source="FvL0lC-zSxbZgia9cZai-123" target="FvL0lC-zSxbZgia9cZai-42" edge="1">
          <mxGeometry relative="1" as="geometry">
            <Array as="points">
              <mxPoint x="220" y="370" />
              <mxPoint x="1030" y="370" />
              <mxPoint x="1030" y="895" />
            </Array>
          </mxGeometry>
        </mxCell>
        <mxCell id="FvL0lC-zSxbZgia9cZai-127" value="&lt;b&gt;&lt;font style=&quot;font-size: 14px;&quot;&gt;startService()&lt;/font&gt;&lt;/b&gt;" style="edgeLabel;html=1;align=center;verticalAlign=middle;resizable=0;points=[];" parent="FvL0lC-zSxbZgia9cZai-125" vertex="1" connectable="0">
          <mxGeometry x="-0.8582" y="6" relative="1" as="geometry">
            <mxPoint as="offset" />
          </mxGeometry>
        </mxCell>
        <mxCell id="FvL0lC-zSxbZgia9cZai-123" value="Trigger Manager Service" style="rounded=0;whiteSpace=wrap;html=1;" parent="1" vertex="1">
          <mxGeometry x="75" y="240" width="290" height="60" as="geometry" />
        </mxCell>
        <mxCell id="FvL0lC-zSxbZgia9cZai-130" value="&lt;h1 style=&quot;&quot;&gt;Trigger Manager&lt;/h1&gt;&lt;div&gt;&lt;br&gt;&lt;/div&gt;&lt;div&gt;Request all necessary permissions and create channels&lt;/div&gt;&lt;p&gt;&lt;/p&gt;" style="text;html=1;strokeColor=none;fillColor=none;spacing=5;spacingTop=-20;whiteSpace=wrap;overflow=hidden;rounded=0;" parent="1" vertex="1">
          <mxGeometry x="380" y="190" width="190" height="120" as="geometry" />
        </mxCell>
        <mxCell id="FvL0lC-zSxbZgia9cZai-132" style="edgeStyle=orthogonalEdgeStyle;rounded=0;orthogonalLoop=1;jettySize=auto;html=1;entryX=0.5;entryY=0;entryDx=0;entryDy=0;" parent="1" source="FvL0lC-zSxbZgia9cZai-131" target="FvL0lC-zSxbZgia9cZai-122" edge="1">
          <mxGeometry relative="1" as="geometry">
            <Array as="points">
              <mxPoint x="-500" y="90" />
              <mxPoint x="220" y="90" />
            </Array>
          </mxGeometry>
        </mxCell>
        <mxCell id="FvL0lC-zSxbZgia9cZai-133" style="edgeStyle=orthogonalEdgeStyle;rounded=0;orthogonalLoop=1;jettySize=auto;html=1;entryX=-0.021;entryY=0.409;entryDx=0;entryDy=0;entryPerimeter=0;" parent="1" source="FvL0lC-zSxbZgia9cZai-131" target="FvL0lC-zSxbZgia9cZai-103" edge="1">
          <mxGeometry relative="1" as="geometry" />
        </mxCell>
        <mxCell id="FvL0lC-zSxbZgia9cZai-131" value="onClick()" style="ellipse;whiteSpace=wrap;html=1;" parent="1" vertex="1">
          <mxGeometry x="-550" y="280" width="120" height="80" as="geometry" />
        </mxCell>
        <mxCell id="FvL0lC-zSxbZgia9cZai-134" value="&lt;b&gt;&lt;font style=&quot;font-size: 18px;&quot;&gt;NOTIFICATIONS&lt;/font&gt;&lt;br&gt;&lt;/b&gt;" style="text;html=1;align=center;verticalAlign=middle;resizable=0;points=[];autosize=1;strokeColor=none;fillColor=none;" parent="1" vertex="1">
          <mxGeometry x="-330" y="150" width="160" height="40" as="geometry" />
        </mxCell>
      </root>
    </mxGraphModel>
  </diagram>
</mxfile>
